<svg xmlns="http://www.w3.org/2000/svg" width="85" height="48" viewBox="0 0 85 48" fill="none">
  <path d="M9.3899 29.4L14.5313 40.4739H12.6622L10.9984 36.8609H6.30716L4.58546 40.4687H3.66406L8.9292 29.3948L9.3899 29.4ZM6.62834 36.1591H10.6562L8.67121 31.8756L6.62834 36.1591Z" fill="currentColor"></path>
  <path d="M30.7587 29.4L35.9002 40.4739H34.0284L32.362 36.8609H27.6734L25.9517 40.4687H25.0303L30.2954 29.3948L30.7587 29.4ZM27.9998 36.1591H32.025L30.0401 31.8756L27.9998 36.1591Z" fill="currentColor"></path>
  <path d="M37.1559 29.6453L40.4176 37.8757L43.2845 30.4461L46.2409 37.907L49.4289 29.6453H50.3187L46.1172 40.56H45.5722L42.8712 33.8087L40.286 40.56H39.6595L35.3184 29.6453H37.1559Z" fill="currentColor"></path>
  <path d="M55.4784 29.4L60.6198 40.4739H58.7507L57.0869 36.8609H52.4009L50.6792 40.4687H49.7578L55.023 29.3948L55.4784 29.4ZM52.7195 36.1591H56.7473L54.7623 31.8756L52.7195 36.1591Z" fill="currentColor"></path>
  <path d="M62.1364 29.6453H63.9713V39.7696H69.4734V40.4714H62.1338V29.6453H62.1364Z" fill="currentColor"></path>
  <path d="M70.5475 29.6453L74.3437 35.1313L78.1162 29.6453H79.1139L74.8755 35.7913V40.4687H73.0406V35.9635L68.6758 29.6453H70.5475Z" fill="currentColor"></path>
  <path d="M10.5518 23.2591L11.6917 24.4017L12.7263 23.2956L11.6732 22.2495L10.5518 23.2591Z" fill="currentColor"></path>
  <path d="M8.06055 23.2435L9.18202 24.3678C9.52689 24.013 9.88755 23.6374 10.2245 23.2904L9.16886 22.2548L8.06055 23.2435Z" fill="currentColor"></path>
  <path d="M37.1249 8.9165H35.2979V19.8235H37.1249V8.9165Z" fill="currentColor"></path>
  <path d="M29.8846 19.1243H21.7921V15.3261C21.8 14.6765 21.6657 14.0322 21.3946 13.4374C21.1208 12.8478 20.7154 12.3261 20.2099 11.9061C19.7097 11.4965 19.1226 11.2069 18.4882 11.0582C17.68 10.8652 16.8507 10.7791 16.0188 10.7922H14.5867V19.1243H5.39906V16.1582C5.39906 14.0582 5.78078 12.2661 7.17078 11.233L6.9786 10.6095C4.2223 12.0574 3.69052 13.7035 3.58785 15.8374L3.56152 16.9356V19.8261H16.1531V11.4756C16.677 11.473 17.1956 11.5669 17.68 11.7626C18.1354 11.9452 18.5435 12.2165 18.8857 12.5609C19.2306 12.9156 19.4965 13.3356 19.6729 13.7948C19.8677 14.293 19.9624 14.8226 19.9545 15.36V19.8209H31.7116V8.9165H29.882L29.8846 19.1243Z" fill="currentColor"></path>
  <path d="M79.0057 8.9165H77.1787V19.8235H79.0057V8.9165Z" fill="currentColor"></path>
  <path d="M71.7688 8.91659V19.1244H63.3603L65.9745 10.8992H55.6522L58.2637 19.1244H50.3107C50.3107 19.1166 50.3133 19.1062 50.3133 19.0983C50.3238 19.0409 50.3291 18.9914 50.337 18.9392C50.3897 18.5166 50.5845 15.8636 50.1764 14.3036C49.8605 13.0775 49.2498 12.1514 48.3705 11.5409C47.7281 11.0896 46.9436 10.8157 46.0249 10.7244C43.2528 10.4401 41.0256 12.154 40.736 14.7914C40.4412 17.4288 42.0391 19.414 44.7033 19.7322C45.5247 19.8314 46.8225 19.8914 47.686 19.9018C48.0361 19.9018 48.3494 19.9018 48.4942 19.894C48.3784 20.3975 48.1915 20.8853 47.9414 21.3392C47.4412 22.1557 46.6777 22.5809 45.6089 22.6436L45.4904 22.6514L45.5484 22.7531C45.7511 23.1053 45.938 23.327 46.2012 23.327C46.2328 23.327 46.2592 23.3244 46.2881 23.3192C48.044 23.0322 49.2629 22.1166 49.9079 20.6036C50.0079 20.3453 50.0922 20.0844 50.1554 19.8157H73.5984V8.91138H71.7688V8.91659ZM48.4968 19.0983C48.3178 19.0983 48.1493 19.0983 47.9782 19.1009H47.9598C47.8334 19.1009 47.7071 19.1036 47.5807 19.1088C46.6988 19.1349 45.8169 19.1166 44.9376 19.0514C43.774 18.9496 43.0106 18.287 42.6762 17.0844C42.4998 16.4609 42.413 15.8557 42.413 15.2714C42.413 14.5044 42.5657 13.7766 42.8684 13.0931C43.337 12.0288 44.2505 11.4549 45.4562 11.4549H45.6405C45.9617 11.4705 46.2618 11.5279 46.5382 11.6166C47.3543 11.8931 47.9545 12.4905 48.2362 13.3462C48.4047 13.8262 48.5047 14.3296 48.5258 14.8357C48.5705 16.1557 48.51 18.6575 48.4968 19.0983ZM60.0933 19.1244L57.7187 11.6583H63.9053L61.5333 19.1244H60.0933Z" fill="currentColor"></path>
  <path d="M16.0479 29.6453H17.8828V39.7696H23.3848V40.4714H16.0479V29.6453Z" fill="currentColor"></path>
</svg>