<svg xmlns="http://www.w3.org/2000/svg" width="40" height="48" viewBox="90 0 45 48" fill="none">
  <path d="M108.589 47.0556L108.644 47.0974L109.131 2.26953L108.109 3.0052L108.589 47.0556Z" fill="currentColor"></path>
  <path d="M104.665 44.2279L104.728 44.2722L105.213 5.0896L104.191 5.82525L104.665 44.2279Z" fill="currentColor"></path>
  <path d="M100.74 41.4L100.811 41.4522L101.29 7.91479L100.271 8.64784L100.74 41.4Z" fill="currentColor"></path>
  <path d="M96.8152 38.5722L96.8994 38.6322L97.3733 10.74L96.3545 11.473L96.8152 38.5722Z" fill="currentColor"></path>
  <path d="M92.8877 35.7417L92.9877 35.8122L93.4537 13.5626L92.4375 14.2957L92.8877 35.7417Z" fill="currentColor"></path>
  <path d="M128.678 35.9479L129.167 35.5957L130.176 15.347L127.588 13.4818L128.678 35.9479Z" fill="currentColor"></path>
  <path d="M124.75 38.7757L125.25 38.4157L126.261 12.5244L123.665 10.6539L124.75 38.7757Z" fill="currentColor"></path>
  <path d="M120.824 41.6035L121.33 41.2409L122.346 9.70695L119.742 7.8313L120.824 41.6035Z" fill="currentColor"></path>
  <path d="M116.902 44.4312L117.413 44.0634L118.434 6.88429L115.825 5.00342L116.902 44.4312Z" fill="currentColor"></path>
  <path d="M113.006 47.2357L113.467 46.9044L114.52 4.06178L111.908 2.18091L113.006 47.2357Z" fill="currentColor"></path>
</svg>